<?xml version="1.0" standalone="no"?>
<!DOCTYPE svg PUBLIC "-//W3C//DTD SVG 20010904//EN"
 "http://www.w3.org/TR/2001/REC-SVG-20010904/DTD/svg10.dtd">
<svg version="1.0" xmlns="http://www.w3.org/2000/svg"
 width="260.000000pt" height="260.000000pt" viewBox="0 0 260.000000 260.000000"
 preserveAspectRatio="xMidYMid meet">
<metadata>
Created by potrace 1.14, written by Peter Selinger 2001-2017
</metadata>
<g transform="translate(0.000000,260.000000) scale(0.100000,-0.100000)"
fill="#000000" stroke="none">
<path d="M575 2581 c-54 -25 -85 -60 -139 -162 -51 -95 -59 -149 -30 -217 22
-55 60 -89 147 -134 44 -23 91 -56 107 -76 16 -20 28 -37 27 -39 -2 -1 -43 -4
-92 -6 -99 -4 -151 -23 -194 -72 -50 -58 -51 -70 -51 -443 0 -388 0 -390 65
-455 55 -55 93 -62 338 -62 l216 1 11 -51 c45 -196 146 -380 289 -524 127
-128 271 -222 448 -291 119 -47 172 -56 229 -41 66 18 107 64 189 218 72 133
76 144 74 198 -2 42 -10 68 -30 100 -23 37 -43 50 -146 101 -144 70 -223 141
-246 220 l-14 49 166 5 c176 5 203 12 252 63 56 59 56 57 57 585 1 306 -3 502
-10 527 -12 49 -78 116 -129 131 -24 7 -180 11 -454 12 l-418 0 -26 34 c-79
102 -179 190 -286 250 -154 87 -273 114 -350 79z m209 -155 c260 -120 409
-313 452 -586 4 -25 8 -201 8 -392 1 -386 2 -382 -64 -397 -19 -4 -173 -7
-342 -6 -306 0 -308 0 -330 23 -23 22 -23 23 -24 359 l-1 337 26 27 c26 26 30
26 154 26 163 0 183 14 165 117 -20 107 -90 190 -207 246 -74 36 -107 74 -97
114 8 34 74 147 94 163 25 20 78 10 166 -31z m1288 -347 c15 -6 31 -23 35 -37
5 -15 9 -240 8 -501 l0 -473 -24 -19 c-21 -17 -42 -19 -221 -19 l-199 0 -21
-27 c-17 -22 -20 -36 -15 -68 3 -22 8 -56 11 -75 8 -56 70 -173 113 -212 52
-49 138 -103 227 -144 70 -32 94 -54 94 -89 0 -20 -115 -231 -143 -262 -26
-29 -46 -29 -132 2 -182 66 -337 165 -459 293 -86 91 -165 222 -201 332 -10
30 -21 65 -26 78 -19 50 -13 58 44 60 28 0 68 7 88 16 47 20 105 85 118 133 6
23 9 179 7 408 -3 381 -10 452 -51 558 -8 20 -15 41 -15 46 0 13 729 12 762 0z"/>
<path d="M1835 1515 c-17 -14 -19 -28 -20 -158 -1 -136 0 -143 23 -165 13 -14
29 -21 38 -18 9 3 21 6 29 6 24 0 34 55 33 184 -1 111 -3 131 -19 147 -23 23
-57 24 -84 4z"/>
</g>
</svg>
