<?xml version="1.0" standalone="no"?>
<!DOCTYPE svg PUBLIC "-//W3C//DTD SVG 20010904//EN"
 "http://www.w3.org/TR/2001/REC-SVG-20010904/DTD/svg10.dtd">
<svg version="1.0" xmlns="http://www.w3.org/2000/svg"
 width="200.000000pt" height="200.000000pt" viewBox="0 0 200.000000 200.000000"
 preserveAspectRatio="xMidYMid meet">

<g transform="translate(0.000000,200.000000) scale(0.100000,-0.100000)"
fill="#000000" stroke="none">
<path d="M340 1040 l0 -120 30 0 c28 0 29 1 32 58 3 49 6 57 23 57 17 0 20 -8
23 -57 3 -57 4 -58 32 -58 l30 0 0 68 c0 89 -13 107 -68 99 l-42 -5 0 39 c0
37 -2 39 -30 39 l-30 0 0 -120z"/>
<path d="M918 1134 c-35 -18 -58 -62 -58 -110 0 -28 8 -44 34 -70 29 -29 41
-34 79 -34 34 0 49 -5 59 -19 13 -19 14 -19 38 -1 18 14 21 21 13 32 -8 10 -8
19 2 38 19 34 19 100 -1 128 -34 49 -112 66 -166 36z m90 -60 c13 -9 22 -26
22 -41 0 -24 -2 -25 -12 -10 -12 15 -15 14 -36 -3 -13 -11 -21 -24 -17 -30 9
-15 -1 -12 -19 6 -23 22 -20 60 6 78 12 9 25 16 28 16 3 0 16 -7 28 -16z"/>
<path d="M760 1110 c0 -11 -7 -20 -15 -20 -9 0 -15 -9 -15 -24 0 -13 7 -26 15
-30 11 -4 15 -21 15 -61 0 -54 0 -55 30 -55 30 0 30 1 30 55 0 40 4 57 15 61
8 4 15 17 15 30 0 15 -6 24 -15 24 -8 0 -15 9 -15 20 0 16 -7 20 -30 20 -23 0
-30 -4 -30 -20z"/>
<path d="M185 1065 c-57 -56 -16 -145 67 -145 57 0 74 11 59 38 -9 17 -18 20
-39 16 -37 -8 -58 16 -42 46 8 16 19 20 42 18 21 -2 34 3 42 15 15 24 -6 37
-62 37 -32 0 -49 -6 -67 -25z"/>
<path d="M550 1063 c-22 -29 -26 -73 -9 -106 18 -33 27 -36 106 -36 l73 0 0
84 0 84 -75 0 c-68 0 -76 -2 -95 -26z m95 -58 c0 -23 -5 -31 -21 -33 -24 -3
-38 20 -28 50 4 13 13 18 27 16 17 -2 22 -10 22 -33z"/>
<path d="M1122 1020 c4 -74 19 -102 54 -100 10 0 43 0 72 0 l52 0 0 85 0 85
-35 0 -35 0 0 -60 c0 -53 -2 -60 -20 -60 -18 0 -20 7 -20 60 l0 60 -36 0 -36
0 4 -70z"/>
<path d="M1345 1065 c-57 -56 -16 -145 67 -145 58 0 74 11 57 38 -10 15 -20
19 -40 15 -15 -3 -30 0 -33 6 -5 7 9 11 43 11 47 0 51 2 51 24 0 13 -9 35 -21
50 -28 36 -89 37 -124 1z m85 -35 c0 -5 -12 -10 -26 -10 -14 0 -23 4 -19 10 3
6 15 10 26 10 10 0 19 -4 19 -10z"/>
<path d="M1510 1005 l0 -85 30 0 c29 0 30 2 30 44 0 44 16 69 41 64 8 -2 15 7
17 20 2 12 6 22 10 22 4 0 21 -32 39 -70 30 -67 31 -73 17 -105 -20 -48 -18
-57 13 -53 24 3 32 16 79 123 l53 120 -26 3 c-37 5 -50 -3 -58 -37 -9 -40 -18
-39 -34 4 -12 34 -13 35 -70 35 -31 0 -62 -5 -69 -12 -9 -9 -12 -9 -12 0 0 7
-13 12 -30 12 l-30 0 0 -85z"/>
</g>
</svg>
