<svg width="104" height="104" viewBox="0 0 104 104" fill="none" xmlns="http://www.w3.org/2000/svg">
<path d="M68.4316 45.4068C67.4722 45.4068 66.6944 46.1663 66.6944 47.1032V53.889C66.6944 54.8259 67.4722 55.5854 68.4316 55.5854C69.3911 55.5854 70.1689 54.8259 70.1689 53.889V47.1032C70.1689 46.1663 69.3911 45.4068 68.4316 45.4068Z" fill="#363636"/>
<path fill-rule="evenodd" clip-rule="evenodd" d="M25 57.0252L25 39.4909C25 36.2261 27.7103 33.5795 31.0537 33.5795H34.635C34.3988 32.9346 34.1009 32.4795 33.7939 32.1524C33.0646 31.375 31.8205 30.5003 29.8288 29.6349C26.738 28.2919 24.9941 24.5255 26.831 21.2351L28.5996 18.0671C29.9327 15.6793 32.8946 14.3519 35.7607 15.3177C41.199 17.1502 45.6424 20.0448 48.8808 24.0948C49.3527 24.6784 49.7921 25.2796 50.1996 25.8978H73.2091C76.4073 25.8978 79 28.4295 79 31.5526V57.7119C79 60.8349 76.4073 63.3667 73.2091 63.3667H65.4955C65.858 65.3495 66.5577 66.6907 67.4041 67.5986C68.7135 69.003 70.9175 70.4549 74.3221 71.8109C77.4248 73.0466 79.0334 76.7168 77.3054 79.8317L73.8573 86.0472C72.5757 88.3575 69.7508 89.5858 67.0438 88.7238C59.4404 86.3027 53.3256 82.3831 48.9354 76.8564C45.7089 72.8417 43.6355 68.1737 42.6385 62.9366H31.0537C27.7103 62.9366 25 60.29 25 57.0252ZM46.474 62.9366C47.4179 67.3828 49.2277 71.2692 51.9034 74.5957C55.7565 79.45 61.1923 82.9945 68.2107 85.2293C69.1163 85.5177 70.094 85.1142 70.5477 84.2964L73.9957 78.0809C74.5907 77.0083 74.0573 75.675 72.9006 75.2143C69.2033 73.7418 66.4433 72.028 64.6207 70.0729C62.7676 68.0852 61.7305 65.2745 61.5093 61.6408C61.4436 60.5611 62.3569 59.6911 63.4645 59.6911H73.2091C74.3285 59.6911 75.2359 58.805 75.2359 57.7119V31.5526C75.2359 30.4595 74.3285 29.5734 73.2091 29.5734H52.1677C53.5717 32.881 54.244 36.5653 54.244 40.5597L54.244 57.0252C54.244 60.29 51.5337 62.9366 48.1903 62.9366H46.474ZM48.0258 29.5734C49.6619 32.71 50.4799 36.3721 50.4799 40.5597L50.4799 57.0252C50.4799 58.26 49.4548 59.261 48.1903 59.261H31.0537C29.7892 59.261 28.7641 58.26 28.7641 57.0252L28.7641 39.4909C28.7641 38.2561 29.7892 37.2551 31.0537 37.2551H36.6323C37.727 37.2551 38.662 36.5009 38.7881 35.4987C38.8062 35.3555 38.8077 35.2073 38.7908 35.0555C38.5685 33.058 37.9738 31.4337 37.0067 30.1827C36.8685 30.004 36.7228 29.8329 36.5694 29.6695C35.4521 28.4786 33.8558 27.4102 31.7805 26.4643C31.6422 26.4012 31.5017 26.3387 31.3591 26.2768C30.2275 25.7851 29.621 24.5699 29.9409 23.4608C29.9866 23.3024 30.0512 23.1461 30.1359 22.9944L31.9045 19.8264C32.4177 18.9071 33.5193 18.4507 34.5328 18.7922C39.3327 20.4096 43.0892 22.885 45.8023 26.2184C45.8419 26.267 45.8812 26.3158 45.9203 26.3648C46.73 27.3651 47.4318 28.4346 48.0258 29.5734Z" fill="#363636"/>
</svg>
