<svg viewBox="0 0 209 60" fill="none" xmlns="http://www.w3.org/2000/svg">
<path d="M58.5762 24.2248V23.3288C58.5762 20.4168 59.1548 17.9341 60.3122 15.8808C61.4695 13.7901 63.0002 12.2034 64.9042 11.1208C66.8455 10.0008 68.9548 9.44078 71.2322 9.44078C73.7708 9.44078 75.6935 9.88878 77.0002 10.7848C78.3068 11.6808 79.2588 12.6141 79.8562 13.5848H80.8642V10.2248H87.8082V42.9288C87.8082 44.8328 87.2482 46.3448 86.1282 47.4648C85.0082 48.6221 83.5148 49.2008 81.6482 49.2008H63.0562V43.0408H79.1842C80.2295 43.0408 80.7522 42.4808 80.7522 41.3608V34.1368H79.7442C79.3708 34.7341 78.8482 35.3501 78.1762 35.9848C77.5042 36.5821 76.6082 37.0861 75.4882 37.4968C74.3682 37.9075 72.9495 38.1128 71.2322 38.1128C68.9548 38.1128 66.8455 37.5715 64.9042 36.4888C63.0002 35.3688 61.4695 33.7821 60.3122 31.7288C59.1548 29.6381 58.5762 27.1368 58.5762 24.2248ZM73.2482 31.9528C75.4135 31.9528 77.2242 31.2621 78.6802 29.8808C80.1362 28.4995 80.8642 26.5581 80.8642 24.0568V23.4968C80.8642 20.9581 80.1362 19.0168 78.6802 17.6728C77.2615 16.2915 75.4508 15.6008 73.2482 15.6008C71.0828 15.6008 69.2722 16.2915 67.8162 17.6728C66.3602 19.0168 65.6322 20.9581 65.6322 23.4968V24.0568C65.6322 26.5581 66.3602 28.4995 67.8162 29.8808C69.2722 31.2621 71.0828 31.9528 73.2482 31.9528Z" fill="#F5F5F5"/>
<path d="M106.607 38.7848C103.844 38.7848 101.362 38.2248 99.1591 37.1048C96.9564 35.9848 95.2204 34.3608 93.9511 32.2328C92.6818 30.1048 92.0471 27.5475 92.0471 24.5608V23.6648C92.0471 20.6781 92.6818 18.1208 93.9511 15.9928C95.2204 13.8648 96.9564 12.2408 99.1591 11.1208C101.362 10.0008 103.844 9.44078 106.607 9.44078C109.37 9.44078 111.852 10.0008 114.055 11.1208C116.258 12.2408 117.994 13.8648 119.263 15.9928C120.532 18.1208 121.167 20.6781 121.167 23.6648V24.5608C121.167 27.5475 120.532 30.1048 119.263 32.2328C117.994 34.3608 116.258 35.9848 114.055 37.1048C111.852 38.2248 109.37 38.7848 106.607 38.7848ZM106.607 32.5128C108.772 32.5128 110.564 31.8221 111.983 30.4408C113.402 29.0221 114.111 27.0061 114.111 24.3928V23.8328C114.111 21.2195 113.402 19.2221 111.983 17.8408C110.602 16.4221 108.81 15.7128 106.607 15.7128C104.442 15.7128 102.65 16.4221 101.231 17.8408C99.8124 19.2221 99.1031 21.2195 99.1031 23.8328V24.3928C99.1031 27.0061 99.8124 29.0221 101.231 30.4408C102.65 31.8221 104.442 32.5128 106.607 32.5128Z" fill="#F5F5F5"/>
<path d="M125.44 38.0008V0H132.496V38.0008H125.44Z" fill="#F5F5F5"/>
<path d="M150.731 38.7848C147.969 38.7848 145.523 38.2061 143.395 37.0488C141.305 35.8541 139.662 34.1928 138.467 32.0648C137.31 29.8995 136.731 27.3608 136.731 24.4488V23.7768C136.731 20.8648 137.31 18.3448 138.467 16.2168C139.625 14.0515 141.249 12.3901 143.339 11.2328C145.43 10.0381 147.857 9.44078 150.619 9.44078C153.345 9.44078 155.715 10.0568 157.731 11.2888C159.747 12.4834 161.315 14.1635 162.435 16.3288C163.555 18.4568 164.115 20.9395 164.115 23.7768V26.1848H143.899C143.974 28.0888 144.683 29.6381 146.027 30.8328C147.371 32.0275 149.014 32.6248 150.955 32.6248C152.934 32.6248 154.39 32.1955 155.323 31.3368C156.257 30.4781 156.966 29.5261 157.451 28.4808L163.219 31.5048C162.697 32.4755 161.931 33.5395 160.923 34.6968C159.953 35.8168 158.646 36.7875 157.003 37.6088C155.361 38.3928 153.27 38.7848 150.731 38.7848ZM143.955 20.9208H156.947C156.798 19.3155 156.145 18.0275 154.987 17.0568C153.867 16.0861 152.393 15.6008 150.563 15.6008C148.659 15.6008 147.147 16.0861 146.027 17.0568C144.907 18.0275 144.216 19.3155 143.955 20.9208Z" fill="#F5F5F5"/>
<path d="M168.155 38.0008V10.2248H175.099V13.2488H176.107C176.593 12.3154 177.395 11.5128 178.515 10.8408C179.635 10.1314 181.11 9.77678 182.939 9.77678C184.918 9.77678 186.505 10.1688 187.699 10.9528C188.894 11.6994 189.809 12.6888 190.443 13.9208H191.451C192.086 12.7261 192.982 11.7368 194.139 10.9528C195.297 10.1688 196.939 9.77678 199.067 9.77678C200.785 9.77678 202.334 10.1501 203.715 10.8968C205.134 11.6061 206.254 12.7074 207.075 14.2008C207.934 15.6568 208.363 17.5048 208.363 19.7448V38.0008H201.307V20.2488C201.307 18.7181 200.915 17.5795 200.131 16.8328C199.347 16.0488 198.246 15.6568 196.827 15.6568C195.222 15.6568 193.971 16.1795 193.075 17.2248C192.217 18.2328 191.787 19.6888 191.787 21.5928V38.0008H184.731V20.2488C184.731 18.7181 184.339 17.5795 183.555 16.8328C182.771 16.0488 181.67 15.6568 180.251 15.6568C178.646 15.6568 177.395 16.1795 176.499 17.2248C175.641 18.2328 175.211 19.6888 175.211 21.5928V38.0008H168.155Z" fill="#F5F5F5"/>
<path d="M35.3887 24.6541C34.607 24.6541 33.9732 25.27 33.9732 26.0296V31.5316C33.9732 32.2912 34.607 32.9071 35.3887 32.9071C36.1705 32.9071 36.8043 32.2912 36.8043 31.5316V26.0296C36.8043 25.27 36.1705 24.6541 35.3887 24.6541Z" fill="#F5F5F5"/>
<path fill-rule="evenodd" clip-rule="evenodd" d="M1.27909e-06 34.0745L0 19.8575C-2.38157e-07 17.2104 2.20841 15.0645 4.93261 15.0645H7.85072C7.65827 14.5416 7.41552 14.1726 7.16544 13.9073C6.57116 13.277 5.55741 12.5678 3.93455 11.8661C1.41616 10.7772 -0.00477418 7.72335 1.49195 5.0555L2.933 2.48687C4.01921 0.550746 6.43266 -0.525488 8.76798 0.257574C13.1992 1.74343 16.8198 4.09038 19.4585 7.37417C19.843 7.84734 20.201 8.33478 20.533 8.83603H39.2815C41.8875 8.83603 44 10.8888 44 13.421V34.6313C44 37.1635 41.8875 39.2162 39.2815 39.2162H32.9964C33.2917 40.8239 33.8618 41.9113 34.5515 42.6475C35.6184 43.7862 37.4143 44.9635 40.1884 46.0629C42.7165 47.0648 44.0272 50.0406 42.6192 52.5662L39.8097 57.6058C38.7654 59.4791 36.4636 60.475 34.2579 59.7761C28.0625 57.813 23.0801 54.635 19.5029 50.1538C16.8739 46.8987 15.1845 43.1138 14.3721 38.8675H4.93261C2.20841 38.8675 1.71032e-06 36.7216 1.27909e-06 34.0745ZM17.4974 38.8675C18.2664 42.4725 19.7411 45.6236 21.9213 48.3209C25.0609 52.2567 29.49 55.1307 35.2087 56.9427C35.9466 57.1765 36.7433 56.8494 37.1129 56.1863L39.9224 51.1467C40.4073 50.277 39.9726 49.196 39.0301 48.8224C36.0175 47.6285 33.7686 46.2389 32.2835 44.6537C30.7736 43.042 29.9285 40.7631 29.7483 37.8168C29.6948 36.9414 30.4389 36.236 31.3414 36.236H39.2815C40.1936 36.236 40.933 35.5175 40.933 34.6313V13.421C40.933 12.5347 40.1936 11.8163 39.2815 11.8163H22.1366C23.2807 14.4981 23.8284 17.4853 23.8284 20.7241V34.0745C23.8284 36.7216 21.62 38.8675 18.8958 38.8675H17.4974ZM18.7618 11.8163C20.0949 14.3595 20.7614 17.3287 20.7614 20.7241L20.7614 34.0745C20.7614 35.0757 19.9261 35.8873 18.8958 35.8873H4.93261C3.90228 35.8873 3.06703 35.0757 3.06703 34.0745L3.06702 19.8575C3.06702 18.8563 3.90227 18.0447 4.93261 18.0447H9.47819C10.3702 18.0447 11.132 17.4332 11.2348 16.6206C11.2495 16.5045 11.2507 16.3843 11.2369 16.2612C11.0558 14.6416 10.5713 13.3246 9.78324 12.3103C9.67066 12.1654 9.55189 12.0267 9.42692 11.8942C8.51656 10.9286 7.21587 10.0623 5.52486 9.29537C5.41213 9.24424 5.29766 9.19356 5.18145 9.14331C4.25944 8.74464 3.76525 7.75942 4.02594 6.86014C4.06318 6.73167 4.11582 6.60496 4.18483 6.48196L5.62588 3.91334C6.04406 3.16795 6.94161 2.79785 7.7675 3.07478C11.6785 4.38618 14.7393 6.39325 16.95 9.09599C16.9823 9.13541 17.0143 9.17498 17.0462 9.2147C17.7059 10.0257 18.2778 10.8929 18.7618 11.8163Z" fill="#F5F5F5"/>
</svg>
