<svg width="209" height="60" xmlns="http://www.w3.org/2000/svg" fill="none">

 <g>
  <title>Layer 1</title>
  <path id="svg_6" fill="#F5F5F5" d="m35.3887,24.6541c-0.7817,0 -1.4155,0.6159 -1.4155,1.3755l0,5.502c0,0.7596 0.6338,1.3755 1.4155,1.3755c0.7818,0 1.4156,-0.6159 1.4156,-1.3755l0,-5.502c0,-0.7596 -0.6338,-1.3755 -1.4156,-1.3755z"/>
  <path id="svg_7" fill="#F5F5F5" d="m0,34.0745l0,-14.217c0,-2.6471 2.20841,-4.793 4.93261,-4.793l2.91811,0c-0.19245,-0.5229 -0.4352,-0.8919 -0.68528,-1.1572c-0.59428,-0.6303 -1.60803,-1.3395 -3.23089,-2.0412c-2.51839,-1.0889 -3.93932,-4.14275 -2.4426,-6.8106l1.44105,-2.56863c1.08621,-1.93612 3.49966,-3.01236 5.83498,-2.2293c4.43122,1.48586 8.05182,3.83281 10.69052,7.1166c0.3845,0.47317 0.7425,0.96061 1.0745,1.46186l18.7485,0c2.606,0 4.7185,2.05277 4.7185,4.58497l0,21.2103c0,2.5322 -2.1125,4.5849 -4.7185,4.5849l-6.2851,0c0.2953,1.6077 0.8654,2.6951 1.5551,3.4313c1.0669,1.1387 2.8628,2.316 5.6369,3.4154c2.5281,1.0019 3.8388,3.9777 2.4308,6.5033l-2.8095,5.0396c-1.0443,1.8733 -3.3461,2.8692 -5.5518,2.1703c-6.1954,-1.9631 -11.1778,-5.1411 -14.755,-9.6223c-2.629,-3.2551 -4.3184,-7.04 -5.1308,-11.2863l-9.43949,0c-2.7242,0 -4.93261,-2.1459 -4.93261,-4.793zm17.4974,4.793c0.769,3.605 2.2437,6.7561 4.4239,9.4534c3.1396,3.9358 7.5687,6.8098 13.2874,8.6218c0.7379,0.2338 1.5346,-0.0933 1.9042,-0.7564l2.8095,-5.0396c0.4849,-0.8697 0.0502,-1.9507 -0.8923,-2.3243c-3.0126,-1.1939 -5.2615,-2.5835 -6.7466,-4.1687c-1.5099,-1.6117 -2.355,-3.8906 -2.5352,-6.8369c-0.0535,-0.8754 0.6906,-1.5808 1.5931,-1.5808l7.9401,0c0.9121,0 1.6515,-0.7185 1.6515,-1.6047l0,-21.2103c0,-0.8863 -0.7394,-1.6047 -1.6515,-1.6047l-17.1449,0c1.1441,2.6818 1.6918,5.669 1.6918,8.9078l0,13.3504c0,2.6471 -2.2084,4.793 -4.9326,4.793l-1.3984,0zm1.2644,-27.0512c1.3331,2.5432 1.9996,5.5124 1.9996,8.9078l0,13.3504c0,1.0012 -0.8353,1.8128 -1.8656,1.8128l-13.96319,0c-1.03033,0 -1.86558,-0.8116 -1.86558,-1.8128l-0.00001,-14.217c0,-1.0012 0.83525,-1.8128 1.86559,-1.8128l4.54558,0c0.89201,0 1.65381,-0.6115 1.75661,-1.4241c0.0147,-0.1161 0.0159,-0.2363 0.0021,-0.3594c-0.1811,-1.6196 -0.6656,-2.9366 -1.45366,-3.9509c-0.11258,-0.1449 -0.23135,-0.2836 -0.35632,-0.4161c-0.91036,-0.9656 -2.21105,-1.8319 -3.90206,-2.59883c-0.11273,-0.05113 -0.2272,-0.10181 -0.34341,-0.15206c-0.92201,-0.39867 -1.4162,-1.38389 -1.15551,-2.28317c0.03724,-0.12847 0.08988,-0.25518 0.15889,-0.37818l1.44105,-2.56862c0.41818,-0.74539 1.31573,-1.11549 2.14162,-0.83856c3.911,1.3114 6.9718,3.31847 9.1825,6.02121c0.0323,0.03942 0.0643,0.07899 0.0962,0.11871c0.6597,0.811 1.2316,1.6782 1.7156,2.6016z" clip-rule="evenodd" fill-rule="evenodd"/>
  <text font-weight="bold" transform="matrix(1.48164 0 0 1.60731 -84.6694 -1.91473)" stroke="null" xml:space="preserve" text-anchor="start" font-family="Noto Sans JP" font-size="24" id="svg_10" y="26.86648" x="86.93367" fill="#000000">chatQuery</text>
 </g>
</svg>